<svg width="19" height="19" viewBox="0 0 19 19" fill="none" xmlns="http://www.w3.org/2000/svg">
<g clip-path="url(#clip0_200_332)">
<path d="M7.125 0H1.78125C0.799187 0 0 0.799187 0 1.78125V7.125C0 8.10706 0.799187 8.90625 1.78125 8.90625H7.125C8.10706 8.90625 8.90625 8.10706 8.90625 7.125V1.78125C8.90625 0.799187 8.10706 0 7.125 0ZM7.71875 7.125C7.71875 7.45216 7.45275 7.71875 7.125 7.71875H1.78125C1.4535 7.71875 1.1875 7.45216 1.1875 7.125V1.78125C1.1875 1.45409 1.4535 1.1875 1.78125 1.1875H7.125C7.45275 1.1875 7.71875 1.45409 7.71875 1.78125V7.125ZM17.2188 0H11.875C10.8929 0 10.0938 0.799187 10.0938 1.78125V7.125C10.0938 8.10706 10.8929 8.90625 11.875 8.90625H17.2188C18.2008 8.90625 19 8.10706 19 7.125V1.78125C19 0.799187 18.2008 0 17.2188 0ZM17.8125 7.125C17.8125 7.45216 17.5465 7.71875 17.2188 7.71875H11.875C11.5472 7.71875 11.2812 7.45216 11.2812 7.125V1.78125C11.2812 1.45409 11.5472 1.1875 11.875 1.1875H17.2188C17.5465 1.1875 17.8125 1.45409 17.8125 1.78125V7.125ZM17.2188 10.0938H11.875C10.8929 10.0938 10.0938 10.8929 10.0938 11.875V17.2188C10.0938 18.2008 10.8929 19 11.875 19H17.2188C18.2008 19 19 18.2008 19 17.2188V11.875C19 10.8929 18.2008 10.0938 17.2188 10.0938ZM17.8125 17.2188C17.8125 17.5459 17.5465 17.8125 17.2188 17.8125H11.875C11.5472 17.8125 11.2812 17.5459 11.2812 17.2188V11.875C11.2812 11.5478 11.5472 11.2812 11.875 11.2812H17.2188C17.5465 11.2812 17.8125 11.5478 17.8125 11.875V17.2188ZM7.125 10.0938H1.78125C0.799187 10.0938 0 10.8929 0 11.875V17.2188C0 18.2008 0.799187 19 1.78125 19H7.125C8.10706 19 8.90625 18.2008 8.90625 17.2188V11.875C8.90625 10.8929 8.10706 10.0938 7.125 10.0938ZM7.71875 17.2188C7.71875 17.5459 7.45275 17.8125 7.125 17.8125H1.78125C1.4535 17.8125 1.1875 17.5459 1.1875 17.2188V11.875C1.1875 11.5478 1.4535 11.2812 1.78125 11.2812H7.125C7.45275 11.2812 7.71875 11.5478 7.71875 11.875V17.2188Z" fill="white"/>
</g>
<defs>
<clipPath id="clip0_200_332">
<rect width="19" height="19" fill="white"/>
</clipPath>
</defs>
</svg>
