<svg width="55" height="55" viewBox="0 0 55 55" fill="none" xmlns="http://www.w3.org/2000/svg">
<rect x="0.5" y="0.5" width="54" height="54" stroke="#DDDDDD"/>
<g clip-path="url(#clip0_200_312)">
<path fill-rule="evenodd" clip-rule="evenodd" d="M28 19.375C29.45 19.375 30.625 20.55 30.625 22C30.625 23.45 29.45 24.625 28 24.625C26.55 24.625 25.375 23.45 25.375 22C25.375 20.55 26.55 19.375 28 19.375ZM28 30.625C31.7125 30.625 35.625 32.45 35.625 33.25V34.625H20.375V33.25C20.375 32.45 24.2875 30.625 28 30.625ZM28 17C25.2375 17 23 19.2375 23 22C23 24.7625 25.2375 27 28 27C30.7625 27 33 24.7625 33 22C33 19.2375 30.7625 17 28 17ZM28 28.25C24.6625 28.25 18 29.925 18 33.25V35.75C18 36.4375 18.5625 37 19.25 37H36.75C37.4375 37 38 36.4375 38 35.75V33.25C38 29.925 31.3375 28.25 28 28.25Z" fill="#247500"/>
</g>
<defs>
<clipPath id="clip0_200_312">
<rect width="20" height="20" fill="white" transform="translate(18 17)"/>
</clipPath>
</defs>
</svg>
