<svg width="35" height="35" viewBox="0 0 35 35" fill="none" xmlns="http://www.w3.org/2000/svg">
<g clip-path="url(#clip0_225_1449)">
<rect width="35" height="35" rx="17.5" fill="white"/>
<path fill-rule="evenodd" clip-rule="evenodd" d="M0 17.5C0 27.165 7.83504 35 17.5 35C27.165 35 35 27.165 35 17.5C35 7.83504 27.165 0 17.5 0C7.83504 0 0 7.83504 0 17.5ZM14.2917 24.5208L14.5894 20.06L22.704 12.7368C23.0601 12.4207 22.6263 12.2665 22.1535 12.5532L12.1387 18.8715L7.8128 17.5213C6.87859 17.2353 6.87189 16.5933 8.02251 16.1318L24.8794 9.63191C25.6493 9.28234 26.3924 9.81682 26.0985 10.9952L23.2278 24.5231C23.0273 25.4844 22.4464 25.7143 21.6417 25.2703L17.2686 22.0394L15.1667 24.0833C15.16 24.0898 15.1535 24.0962 15.1469 24.1026C14.9118 24.3315 14.7173 24.5208 14.2917 24.5208Z" fill="#0D2B00"/>
</g>
<defs>
<clipPath id="clip0_225_1449">
<rect width="35" height="35" rx="17.5" fill="white"/>
</clipPath>
</defs>
</svg>
