<svg width="30" height="30" viewBox="0 0 30 30" fill="none" xmlns="http://www.w3.org/2000/svg">
<rect width="30" height="30" rx="15" fill="white"/>
<path fill-rule="evenodd" clip-rule="evenodd" d="M2.5 15C2.5 21.9035 8.09646 27.5 15 27.5C21.9035 27.5 27.5 21.9035 27.5 15C27.5 8.09646 21.9035 2.5 15 2.5C8.09646 2.5 2.5 8.09646 2.5 15ZM12.7083 20.0149L12.921 16.8286L18.7171 11.5977C18.9715 11.3719 18.6616 11.2618 18.3239 11.4666L11.1705 15.9796L8.08057 15.0152C7.41328 14.8109 7.40849 14.3524 8.23036 14.0227L20.271 9.37993C20.8209 9.13025 21.3517 9.51202 21.1418 10.3537L19.0913 20.0165C18.9481 20.7032 18.5332 20.8674 17.9583 20.5502L14.8347 18.2424L13.3333 19.7024C13.3286 19.707 13.3239 19.7115 13.3192 19.7161C13.1513 19.8796 13.0123 20.0149 12.7083 20.0149Z" fill="#247500"/>
</svg>
