<svg width="35" height="35" viewBox="0 0 35 35" fill="none" xmlns="http://www.w3.org/2000/svg">
<path fill-rule="evenodd" clip-rule="evenodd" d="M17.5 0C7.83504 0 0 7.83504 0 17.5C0 27.165 7.83504 35 17.5 35C27.165 35 35 27.165 35 17.5C35 7.83504 27.165 0 17.5 0ZM18.9249 23.0243C18.7523 23.2062 18.4155 23.243 18.4155 23.243H17.2998C17.2998 23.243 14.8383 23.3882 12.67 21.1728C10.3054 18.7558 8.21734 13.9603 8.21734 13.9603C8.21734 13.9603 8.09689 13.6457 8.22741 13.4942C8.37441 13.3231 8.77523 13.3123 8.77523 13.3123L11.442 13.2953C11.442 13.2953 11.6931 13.3357 11.8729 13.4656C12.0218 13.5731 12.1049 13.773 12.1049 13.773C12.1049 13.773 12.5358 14.8431 13.1064 15.8109C14.2212 17.701 14.7397 18.1141 15.1177 17.9115C15.6692 17.6167 15.5039 15.24 15.5039 15.24C15.5039 15.24 15.514 14.3779 15.2264 13.9934C15.0036 13.6959 14.5836 13.6089 14.3983 13.5848C14.2476 13.5651 14.4942 13.2227 14.8137 13.0695C15.2939 12.8392 16.1412 12.8258 17.1427 12.8356C17.9234 12.8436 18.1479 12.8912 18.4529 12.9637C19.1606 13.1313 19.1385 13.6686 19.0908 14.8281C19.0765 15.1749 19.06 15.5773 19.06 16.0421C19.06 16.1466 19.0569 16.2579 19.0537 16.3725C19.0372 16.9665 19.0182 17.6467 19.417 17.8999C19.6215 18.0289 20.1209 17.9188 21.3708 15.836C21.9633 14.8484 22.407 13.6878 22.407 13.6878C22.407 13.6878 22.5047 13.4808 22.6554 13.3921C22.8096 13.3016 23.0178 13.3294 23.0178 13.3294L25.8243 13.3123C25.8243 13.3123 26.668 13.2129 26.8039 13.5875C26.9473 13.9791 26.489 14.895 25.3423 16.3952C24.2545 17.8187 23.7252 18.3428 23.7738 18.8063C23.8093 19.145 24.1534 19.4513 24.8137 20.0525C26.192 21.3088 26.5616 21.9697 26.6503 22.1285C26.6577 22.1417 26.6631 22.1514 26.667 22.1577C27.2851 23.1641 25.9814 23.243 25.9814 23.243L23.488 23.277C23.488 23.277 22.953 23.381 22.2482 22.906C21.8789 22.6574 21.5181 22.2514 21.1746 21.8646C20.6497 21.274 20.165 20.7285 19.7512 20.8573C19.0563 21.0742 19.0773 22.5431 19.0773 22.5431C19.0773 22.5431 19.0828 22.8576 18.9249 23.0243Z" fill="#0D2B00"/>
</svg>
