<svg width="25" height="26" viewBox="0 0 25 26" fill="none" xmlns="http://www.w3.org/2000/svg">
<path fill-rule="evenodd" clip-rule="evenodd" d="M12.5 0.5C5.59646 0.5 0 6.09646 0 13C0 19.9035 5.59646 25.5 12.5 25.5C19.4035 25.5 25 19.9035 25 13C25 6.09646 19.4035 0.5 12.5 0.5ZM13.5178 16.9459C13.3945 17.0759 13.1539 17.1021 13.1539 17.1021H12.357C12.357 17.1021 10.5988 17.2058 9.05 15.6234C7.36099 13.897 5.86953 10.4716 5.86953 10.4716C5.86953 10.4716 5.78349 10.2469 5.87672 10.1387C5.98172 10.0165 6.26802 10.0088 6.26802 10.0088L8.17286 9.99667C8.17286 9.99667 8.35224 10.0255 8.48068 10.1183C8.58698 10.1951 8.64635 10.3379 8.64635 10.3379C8.64635 10.3379 8.95417 11.1022 9.36172 11.7935C10.158 13.1435 10.5284 13.4386 10.7984 13.294C11.1923 13.0834 11.0742 11.3857 11.0742 11.3857C11.0742 11.3857 11.0814 10.7699 10.876 10.4953C10.7169 10.2828 10.4169 10.2207 10.2845 10.2034C10.1769 10.1893 10.353 9.94479 10.5812 9.83536C10.9242 9.67083 11.5294 9.66125 12.2448 9.66828C12.8024 9.67401 12.9628 9.70797 13.1806 9.75979C13.6861 9.87953 13.6704 10.2633 13.6363 11.0915C13.6261 11.3392 13.6143 11.6266 13.6143 11.9586C13.6143 12.0333 13.6121 12.1128 13.6098 12.1946C13.598 12.6189 13.5844 13.1048 13.8693 13.2857C14.0154 13.3778 14.3721 13.2991 15.2648 11.8114C15.6881 11.106 16.005 10.277 16.005 10.277C16.005 10.277 16.0748 10.1292 16.1824 10.0658C16.2926 10.0011 16.4413 10.021 16.4413 10.021L18.4459 10.0088C18.4459 10.0088 19.0485 9.93776 19.1457 10.2054C19.2481 10.4851 18.9207 11.1393 18.1016 12.2109C17.3246 13.2277 16.9466 13.602 16.9812 13.9331C17.0066 14.175 17.2524 14.3938 17.7241 14.8232C18.7086 15.7206 18.9726 16.1927 19.0359 16.3061C19.0412 16.3155 19.0451 16.3224 19.0479 16.3269C19.4894 17.0458 18.5581 17.1021 18.5581 17.1021L16.7771 17.1265C16.7771 17.1265 16.395 17.2007 15.8916 16.8615C15.6278 16.6839 15.3701 16.3939 15.1247 16.1176C14.7498 15.6957 14.4035 15.306 14.108 15.3981C13.6117 15.553 13.6267 16.6022 13.6267 16.6022C13.6267 16.6022 13.6306 16.8269 13.5178 16.9459Z" fill="#247500"/>
</svg>
