<svg width="25" height="26" viewBox="0 0 25 26" fill="none" xmlns="http://www.w3.org/2000/svg">
<g clip-path="url(#clip0_225_1691)">
<path d="M0 13C0 6.09646 5.59646 0.5 12.5 0.5C19.4035 0.5 25 6.09646 25 13C25 19.9035 19.4035 25.5 12.5 25.5C5.59646 25.5 0 19.9035 0 13Z" fill="#247500"/>
<path d="M18.8882 9.19928C18.7348 8.61022 18.283 8.14636 17.7093 7.98891C16.6696 7.70282 12.5002 7.70282 12.5002 7.70282C12.5002 7.70282 8.33068 7.70282 7.29094 7.98891C6.71719 8.14636 6.26537 8.61022 6.11204 9.19928C5.8335 10.2669 5.8335 12.4945 5.8335 12.4945C5.8335 12.4945 5.8335 14.722 6.11204 15.7897C6.26537 16.3788 6.71719 16.8426 7.29094 17.0001C8.33068 17.2862 12.5002 17.2862 12.5002 17.2862C12.5002 17.2862 16.6696 17.2862 17.7093 17.0001C18.283 16.8426 18.7348 16.3788 18.8882 15.7897C19.1668 14.722 19.1668 12.4945 19.1668 12.4945C19.1668 12.4945 19.1668 10.2669 18.8882 9.19928Z" fill="white"/>
<path d="M11.25 14.7859V10.6192L14.5833 12.7026L11.25 14.7859Z" fill="#247500"/>
</g>
<defs>
<clipPath id="clip0_225_1691">
<rect width="25" height="25" fill="white" transform="translate(0 0.5)"/>
</clipPath>
</defs>
</svg>
