<svg width="35" height="35" viewBox="0 0 35 35" fill="none" xmlns="http://www.w3.org/2000/svg">
<g clip-path="url(#clip0_225_1390)">
<path d="M0.000488281 17.5C0.000488281 7.83504 7.83553 0 17.5005 0C27.1654 0 35.0005 7.83504 35.0005 17.5C35.0005 27.165 27.1654 35 17.5005 35C7.83553 35 0.000488281 27.165 0.000488281 17.5Z" fill="#0D2B00"/>
<path d="M26.4436 12.179C26.2289 11.3543 25.5963 10.7049 24.7932 10.4845C23.3376 10.084 17.5003 10.084 17.5003 10.084C17.5003 10.084 11.6631 10.084 10.2074 10.4845C9.40417 10.7049 8.77162 11.3543 8.55695 12.179C8.16699 13.6737 8.16699 16.7923 8.16699 16.7923C8.16699 16.7923 8.16699 19.9108 8.55695 21.4056C8.77162 22.2303 9.40417 22.8797 10.2074 23.1002C11.6631 23.5007 17.5003 23.5006 17.5003 23.5006C17.5003 23.5006 23.3376 23.5007 24.7932 23.1002C25.5963 22.8797 26.2289 22.2303 26.4436 21.4056C26.8337 19.9108 26.8337 16.7923 26.8337 16.7923C26.8337 16.7923 26.8337 13.6737 26.4436 12.179Z" fill="white"/>
<path d="M15.7505 20.0003V14.167L20.4172 17.0837L15.7505 20.0003Z" fill="#0D2B00"/>
</g>
<defs>
<clipPath id="clip0_225_1390">
<rect width="35" height="35" fill="white"/>
</clipPath>
</defs>
</svg>
